<mxfile host="app.diagrams.net" agent="Mozilla/5.0 (Windows NT 10.0; Win64; x64) AppleWebKit/537.36 (KHTML, like Gecko) Chrome/131.0.0.0 Safari/537.36 OPR/116.0.0.0 (Edition std-2)" version="26.0.14">
  <diagram name="Page-1" id="9LfN6NEJVzMDBBLqpm26">
    <mxGraphModel grid="1" page="1" gridSize="10" guides="1" tooltips="1" connect="1" arrows="1" fold="1" pageScale="1" pageWidth="850" pageHeight="1100" math="0" shadow="1">
      <root>
        <mxCell id="0" />
        <mxCell id="1" parent="0" />
        <mxCell id="2a_9MI4FxuswpJe5QiOw-1" value="String Login&lt;div&gt;String Senha&lt;/div&gt;&lt;div&gt;vector&amp;lt;Tutorial&amp;gt; Histórico&lt;/div&gt;&lt;div&gt;boolean Permissão = False&lt;/div&gt;" style="rounded=0;whiteSpace=wrap;html=1;" vertex="1" parent="1">
          <mxGeometry x="350" y="40" width="200" height="120" as="geometry" />
        </mxCell>
        <mxCell id="2a_9MI4FxuswpJe5QiOw-2" value="Usuario" style="rounded=0;whiteSpace=wrap;html=1;" vertex="1" parent="1">
          <mxGeometry x="350" y="40" width="200" height="30" as="geometry" />
        </mxCell>
        <mxCell id="68SYGeSrPr3gO4EOoLz4-3" style="edgeStyle=orthogonalEdgeStyle;rounded=0;orthogonalLoop=1;jettySize=auto;html=1;exitX=1;exitY=0.5;exitDx=0;exitDy=0;entryX=0;entryY=0.5;entryDx=0;entryDy=0;dashed=1;endArrow=block;endFill=0;" edge="1" parent="1" source="2a_9MI4FxuswpJe5QiOw-3" target="2a_9MI4FxuswpJe5QiOw-1">
          <mxGeometry relative="1" as="geometry" />
        </mxCell>
        <mxCell id="2a_9MI4FxuswpJe5QiOw-3" value="&lt;div&gt;Usuario pessoa&lt;br&gt;&lt;span style=&quot;background-color: transparent; color: light-dark(rgb(0, 0, 0), rgb(255, 255, 255));&quot;&gt;pessoa.Permissão = True&lt;/span&gt;&lt;/div&gt;" style="rounded=0;whiteSpace=wrap;html=1;" vertex="1" parent="1">
          <mxGeometry x="40" y="40" width="200" height="120" as="geometry" />
        </mxCell>
        <mxCell id="2a_9MI4FxuswpJe5QiOw-4" value="Admin" style="rounded=0;whiteSpace=wrap;html=1;" vertex="1" parent="1">
          <mxGeometry x="40" y="40" width="200" height="30" as="geometry" />
        </mxCell>
        <mxCell id="2a_9MI4FxuswpJe5QiOw-5" value="String Info&lt;br&gt;String URL_video&lt;br&gt;int visualizacoes" style="rounded=0;whiteSpace=wrap;html=1;" vertex="1" parent="1">
          <mxGeometry x="360" y="450" width="200" height="120" as="geometry" />
        </mxCell>
        <mxCell id="2a_9MI4FxuswpJe5QiOw-6" value="Tutorial" style="rounded=0;whiteSpace=wrap;html=1;" vertex="1" parent="1">
          <mxGeometry x="360" y="450" width="200" height="30" as="geometry" />
        </mxCell>
        <mxCell id="2a_9MI4FxuswpJe5QiOw-15" style="edgeStyle=orthogonalEdgeStyle;rounded=0;orthogonalLoop=1;jettySize=auto;html=1;entryX=0.5;entryY=0;entryDx=0;entryDy=0;" edge="1" parent="1" source="U_N8foFHeYvZZisG5Zwd-1" target="2a_9MI4FxuswpJe5QiOw-6">
          <mxGeometry relative="1" as="geometry" />
        </mxCell>
        <mxCell id="U_N8foFHeYvZZisG5Zwd-1" value="Controller" style="swimlane;fontStyle=0;childLayout=stackLayout;horizontal=1;startSize=30;horizontalStack=0;resizeParent=1;resizeParentMax=0;resizeLast=0;collapsible=1;marginBottom=0;whiteSpace=wrap;html=1;" vertex="1" parent="1">
          <mxGeometry x="200" y="239" width="200" height="150" as="geometry" />
        </mxCell>
        <mxCell id="68SYGeSrPr3gO4EOoLz4-4" value="Listar()" style="text;strokeColor=none;fillColor=default;align=left;verticalAlign=middle;spacingLeft=4;spacingRight=4;overflow=hidden;points=[[0,0.5],[1,0.5]];portConstraint=eastwest;rotatable=0;whiteSpace=wrap;html=1;strokeWidth=1;" vertex="1" parent="U_N8foFHeYvZZisG5Zwd-1">
          <mxGeometry y="30" width="200" height="30" as="geometry" />
        </mxCell>
        <mxCell id="U_N8foFHeYvZZisG5Zwd-6" value="NovoTutorial()" style="text;strokeColor=none;fillColor=default;align=left;verticalAlign=middle;spacingLeft=4;spacingRight=4;overflow=hidden;points=[[0,0.5],[1,0.5]];portConstraint=eastwest;rotatable=0;whiteSpace=wrap;html=1;strokeWidth=1;" vertex="1" parent="U_N8foFHeYvZZisG5Zwd-1">
          <mxGeometry y="60" width="200" height="30" as="geometry" />
        </mxCell>
        <mxCell id="lrnx3bTBm7jfkRF1PwVF-1" value="SalvarTutorial()" style="text;strokeColor=none;fillColor=default;align=left;verticalAlign=middle;spacingLeft=4;spacingRight=4;overflow=hidden;points=[[0,0.5],[1,0.5]];portConstraint=eastwest;rotatable=0;whiteSpace=wrap;html=1;strokeWidth=1;" vertex="1" parent="U_N8foFHeYvZZisG5Zwd-1">
          <mxGeometry y="90" width="200" height="30" as="geometry" />
        </mxCell>
        <mxCell id="2a_9MI4FxuswpJe5QiOw-10" value="EditarTutorial()" style="text;strokeColor=none;fillColor=default;align=left;verticalAlign=middle;spacingLeft=4;spacingRight=4;overflow=hidden;points=[[0,0.5],[1,0.5]];portConstraint=eastwest;rotatable=0;whiteSpace=wrap;html=1;strokeWidth=1;" vertex="1" parent="U_N8foFHeYvZZisG5Zwd-1">
          <mxGeometry y="120" width="200" height="30" as="geometry" />
        </mxCell>
        <mxCell id="68SYGeSrPr3gO4EOoLz4-7" style="edgeStyle=orthogonalEdgeStyle;rounded=0;orthogonalLoop=1;jettySize=auto;html=1;exitX=0;exitY=0.5;exitDx=0;exitDy=0;entryX=0;entryY=1;entryDx=0;entryDy=0;" edge="1" parent="1" source="oSHmDbpboauWDzCqL9Rn-7" target="2a_9MI4FxuswpJe5QiOw-18">
          <mxGeometry relative="1" as="geometry">
            <Array as="points">
              <mxPoint x="460" y="314" />
              <mxPoint x="460" y="314" />
            </Array>
          </mxGeometry>
        </mxCell>
        <mxCell id="oSHmDbpboauWDzCqL9Rn-7" value="List&amp;lt;Tutorial&amp;gt; Tutoriai&lt;span style=&quot;background-color: transparent; color: light-dark(rgb(0, 0, 0), rgb(255, 255, 255));&quot;&gt;s&lt;/span&gt;&lt;div&gt;&lt;span style=&quot;background-color: transparent; color: light-dark(rgb(0, 0, 0), rgb(255, 255, 255));&quot;&gt;List&amp;lt;Usuario&amp;gt; Usuarios&lt;/span&gt;&lt;/div&gt;" style="rounded=0;whiteSpace=wrap;html=1;" vertex="1" parent="1">
          <mxGeometry x="560" y="254" width="200" height="120" as="geometry" />
        </mxCell>
        <mxCell id="68SYGeSrPr3gO4EOoLz4-1" style="edgeStyle=orthogonalEdgeStyle;rounded=0;orthogonalLoop=1;jettySize=auto;html=1;exitX=0.5;exitY=0;exitDx=0;exitDy=0;entryX=1;entryY=0.5;entryDx=0;entryDy=0;startArrow=block;startFill=1;" edge="1" parent="1" source="oSHmDbpboauWDzCqL9Rn-8" target="2a_9MI4FxuswpJe5QiOw-1">
          <mxGeometry relative="1" as="geometry" />
        </mxCell>
        <mxCell id="oSHmDbpboauWDzCqL9Rn-8" value="Banco_de_Dados" style="rounded=0;whiteSpace=wrap;html=1;" vertex="1" parent="1">
          <mxGeometry x="560" y="254" width="200" height="30" as="geometry" />
        </mxCell>
        <mxCell id="68SYGeSrPr3gO4EOoLz4-2" style="edgeStyle=orthogonalEdgeStyle;rounded=0;orthogonalLoop=1;jettySize=auto;html=1;exitX=0.5;exitY=1;exitDx=0;exitDy=0;entryX=1;entryY=0.5;entryDx=0;entryDy=0;" edge="1" parent="1" source="oSHmDbpboauWDzCqL9Rn-7" target="2a_9MI4FxuswpJe5QiOw-5">
          <mxGeometry relative="1" as="geometry" />
        </mxCell>
        <mxCell id="oSHmDbpboauWDzCqL9Rn-11" style="edgeStyle=orthogonalEdgeStyle;rounded=0;orthogonalLoop=1;jettySize=auto;html=1;entryX=0.194;entryY=0.009;entryDx=0;entryDy=0;entryPerimeter=0;" edge="1" parent="1" source="2a_9MI4FxuswpJe5QiOw-3" target="U_N8foFHeYvZZisG5Zwd-1">
          <mxGeometry relative="1" as="geometry" />
        </mxCell>
        <mxCell id="oSHmDbpboauWDzCqL9Rn-12" style="edgeStyle=orthogonalEdgeStyle;rounded=0;orthogonalLoop=1;jettySize=auto;html=1;entryX=0.806;entryY=0.02;entryDx=0;entryDy=0;entryPerimeter=0;" edge="1" parent="1" source="2a_9MI4FxuswpJe5QiOw-1" target="U_N8foFHeYvZZisG5Zwd-1">
          <mxGeometry relative="1" as="geometry" />
        </mxCell>
        <mxCell id="2a_9MI4FxuswpJe5QiOw-18" value="-banco" style="text;html=1;align=center;verticalAlign=middle;whiteSpace=wrap;rounded=0;" vertex="1" parent="1">
          <mxGeometry x="400" y="284" width="60" height="30" as="geometry" />
        </mxCell>
        <mxCell id="68SYGeSrPr3gO4EOoLz4-5" value="-pessoa" style="text;html=1;align=center;verticalAlign=middle;whiteSpace=wrap;rounded=0;" vertex="1" parent="1">
          <mxGeometry x="290" y="70" width="60" height="30" as="geometry" />
        </mxCell>
        <mxCell id="68SYGeSrPr3gO4EOoLz4-9" style="edgeStyle=orthogonalEdgeStyle;rounded=0;orthogonalLoop=1;jettySize=auto;html=1;exitX=0.75;exitY=1;exitDx=0;exitDy=0;entryX=0.699;entryY=0;entryDx=0;entryDy=0;entryPerimeter=0;" edge="1" parent="1" source="2a_9MI4FxuswpJe5QiOw-1" target="2a_9MI4FxuswpJe5QiOw-6">
          <mxGeometry relative="1" as="geometry" />
        </mxCell>
        <mxCell id="68SYGeSrPr3gO4EOoLz4-10" value="+Historico" style="text;html=1;align=center;verticalAlign=middle;whiteSpace=wrap;rounded=0;" vertex="1" parent="1">
          <mxGeometry x="500" y="410" width="60" height="30" as="geometry" />
        </mxCell>
      </root>
    </mxGraphModel>
  </diagram>
</mxfile>
